<svg width="127" height="128" xmlns="http://www.w3.org/2000/svg"><path style="fill:#0c0c0c;stroke:none" d="M58.271.26C44.504 2.114 31.776 6.59 21.272 16.01c-44.714 40.102-11.188 120.268 50 111.525 31.28-4.469 56.198-33.96 54.96-65.7-1.312-33.598-32.83-66.3-67.96-61.574m24 18.575-4 4c5.397-2.278 13.76-3.668 18.605.652 10.106 9.011-4.709 15.222-12.606 13.348-3.114 3.508-8.277.433-12-1 4.524 5.036 11.126 4.232 12 12-14.844 2.757-28.204.871-43-1l8-11-8 2c-3.236-5.297-9.984-6.5-12.678-12.016-5.464-11.19 10.138-14.746 17.678-11.984v1l-5 6 10-3c-1.83-8.903 6.326-12.088 14-11.982 8.496.118 14.592 4.873 17 12.982m-15 15-15 4 18 1-3-5m-27 5v6l-15 6c2.09-6.013 6.75-8.629 13-8l2-4m-1 7-18 16c3.16-8.334 8.753-15.168 18-16m72 4 10 17-35 21.718-16 8.282c5.69 2.83 16.346 7.74 20.396 12.557 4.04 4.803-1.446 9.59-6.396 9.073-7.571-.792-16.621-12.647-22.575-11.861-7.99 1.055-17.115 18.283-27.181 10.488-11.944-9.25 22.35-14.766 17.12-23.155-3.38-5.423-8.77 2.458-13.364.522-12.634-5.326-32.555-25.602-34-39.624l47 31 9 8v2c-6.806 4.238-14.658 8.747-20.922 13.686-2.654 2.094-3.62 5.95.946 5.836 8.906-.223 13.906-12.495 21.976-12.495 7.485 0 13.035 11.15 20.996 12.382 4.073.63 6.314-2.444 2.837-5.305-6.84-5.63-15.146-8.964-21.833-15.104 5.497-5.861 13.04-10.059 18.675-16.17 9.359-10.15 14.396-23.55 28.326-28.83m-74 1-6 17h-1c-1.787-7.527-.098-13.277 7-17m49 3c-.147 6.076.006 22.332-9 18-.009 10.757-10.552 22.38-22 15.257-6.12-3.808-6.493-8.947-8-15.257-7.947 4.801-7.983-14.955-8-20l47 2m-44 1c2.988 5.858 6.334 8.838 13 9v1l-5 2v1c4.235-.924 9.015-5.74 12.945-5.655 3.571.076 4.513 4.916 7.278 6.46 6.26 3.496 9.51-3.941 9.776-8.805l-27.96.393-10.04-5.393m54 13 15-13c-6.469 2.065-12.124 6.834-15 13m16-9-13 11 13-11m-101 5c3.983 9.405 13.332 16.223 21 22.586 3.501 2.905 7.854 7.75 11 2.414l-32-25m93 6v1l12-6-12 5m-44 5h4v-8c-4.212 1.33-5.003 3.85-4 8m-7 4 5 3v-1l-5-2m7 3v1l11-2-11 1m-17 29-4 2 4-2m42 1v1h-4z"/></svg>