<svg width="51.03" height="52.19" viewBox="0 0 125.55 128.39" xmlns="http://www.w3.org/2000/svg"><path style="fill:#0c0c0c;stroke:none" d="M57.55.46c-13.77 1.85-26.5 6.33-37 15.75-44.72 40.1-11.19 120.26 50 111.52 31.28-4.47 56.2-33.96 54.96-65.7C124.2 28.43 92.68-4.27 57.55.46m24 18.57-4 4c5.4-2.28 13.76-3.67 18.6.65 10.1 9.02-4.7 15.23-12.6 13.35-3.12 3.51-8.28.44-12-1 4.52 5.04 11.12 4.23 12 12-14.85 2.76-28.2.87-43-1l8-11-8 2c-3.24-5.3-9.99-6.5-12.68-12.01C22.4 14.82 38 11.27 45.55 14.03v1l-5 6 10-3c-1.83-8.9 6.32-12.09 14-11.98 8.5.12 14.59 4.87 17 12.98m-15 15-15 4 18 1-3-5m-27 5v6l-15 6c2.09-6.01 6.75-8.63 13-8l2-4m-1 7-18 16c3.16-8.33 8.75-15.17 18-16m72 4 10 17-35 21.72-16 8.28c5.69 2.83 16.34 7.74 20.4 12.56 4.03 4.8-1.45 9.59-6.4 9.07-7.57-.79-16.62-12.64-22.58-11.86-7.99 1.06-17.11 18.28-27.18 10.49-11.94-9.25 22.35-14.77 17.12-23.16-3.38-5.42-8.77 2.46-13.36.53-12.64-5.33-32.56-25.6-34-39.63l47 31 9 8v2c-6.8 4.24-14.66 8.75-20.93 13.69-2.65 2.1-3.62 5.95.95 5.83 8.9-.22 13.9-12.5 21.98-12.5 7.48 0 13.03 11.16 21 12.4 4.07.62 6.3-2.45 2.83-5.31-6.84-5.63-15.15-8.97-21.83-15.1 5.5-5.87 13.04-10.07 18.67-16.18 9.36-10.15 14.4-23.55 28.33-28.83m-74 1-6 17h-1c-1.79-7.52-.1-13.27 7-17m49 3c-.15 6.08 0 22.33-9 18-.01 10.76-10.55 22.38-22 15.26-6.12-3.8-6.5-8.95-8-15.26-7.95 4.8-7.99-14.95-8-20l47 2m-44 1c2.99 5.86 6.33 8.84 13 9v1l-5 2v1c4.23-.92 9.01-5.74 12.94-5.65 3.57.07 4.52 4.91 7.28 6.46 6.26 3.5 9.51-3.94 9.78-8.8l-27.96.39-10.04-5.4m54 13 15-13a25.11 25.11 0 0 0-15 13m16-9-13 11 13-11m-101 5c3.98 9.4 13.33 16.23 21 22.59 3.5 2.9 7.85 7.75 11 2.41l-32-25m93 6v1l12-6-12 5m-44 5h4v-8c-4.22 1.33-5 3.85-4 8m-7 4 5 3v-1l-5-2m7 3v1l11-2-11 1m-17 29-4 2 4-2m42 1v1h-4z"/></svg>