<?xml version="1.0" encoding="UTF-8" standalone="no"?>
<!-- Created with Inkscape (http://www.inkscape.org/) -->

<svg
   version="1.1"
   id="svg2"
   width="395.99997"
   height="396"
   viewBox="0 0 395.99997 396"
   sodipodi:docname="cover.png"
   inkscape:export-filename="cover.png"
   inkscape:export-xdpi="96.000008"
   inkscape:export-ydpi="96.000008"
   xmlns:inkscape="http://www.inkscape.org/namespaces/inkscape"
   xmlns:sodipodi="http://sodipodi.sourceforge.net/DTD/sodipodi-0.dtd"
   xmlns="http://www.w3.org/2000/svg"
   xmlns:svg="http://www.w3.org/2000/svg">
  <defs
     id="defs6" />
  <sodipodi:namedview
     id="namedview4"
     pagecolor="#ffffff"
     bordercolor="#000000"
     borderopacity="0.25"
     inkscape:showpageshadow="2"
     inkscape:pageopacity="0.0"
     inkscape:pagecheckerboard="0"
     inkscape:deskcolor="#d1d1d1"
     showgrid="false"
     inkscape:zoom="1.703125"
     inkscape:cx="184.07339"
     inkscape:cy="289.46789"
     inkscape:window-width="1872"
     inkscape:window-height="1046"
     inkscape:window-x="48"
     inkscape:window-y="1050"
     inkscape:window-maximized="1"
     inkscape:current-layer="g8" />
  <g
     inkscape:groupmode="layer"
     inkscape:label="Image"
     id="g8"
     transform="translate(1.1050761,-49.714172)">
    <g
       id="g555"
       transform="matrix(1.0260786,0,0,1.0010467,2.7177149,10.177549)">
      <ellipse
         style="fill:#000000"
         id="path542"
         cx="189.24203"
         cy="237.28825"
         rx="192.96767"
         ry="197.79297" />
      <g
         id="g549"
         transform="translate(-3.2644089,64.114629)"
         style="fill:#ffffff">
        <path
           style="fill:#ffffff"
           d="m 19.394665,110.58306 c -1.217685,-10.33631 -5.08427,-43.157796 -4.892706,-41.531704 1.630902,13.843902 3.261804,27.687803 4.892706,41.531704 z M 136.91016,351.63799 c 22.54254,-6.8451 39.4327,-23.92615 56.37445,-39.30134 16.16987,6.83315 27.81828,25.47095 45.18248,32.82012 13.97052,8.65733 38.8054,15.82923 47.51287,-3.4499 5.02492,-19.57037 -20.44934,-25.18651 -32.60686,-34.3334 -9.11284,-9.0634 -36.7707,-16.30731 -30.42822,-30.0233 9.4533,-9.54391 21.98404,-28.41126 34.5849,-12.95513 5.39128,2.84923 9.67556,-7.81965 14.6443,-10.53497 28.00001,-25.81268 61.63604,-44.32974 95.0325,-62.15306 8.85123,-16.39172 -14.16976,-33.574 -20.35629,-49.19861 -9.61228,-18.41074 -27.12326,8.51081 -37.26164,14.95977 -20.98113,20.11631 -34.22683,46.33257 -51.17734,69.50951 -8.42366,10.16574 -23.34563,20.21289 -27.11499,28.15687 3.08755,4.61547 -18.59734,10.40193 -18.60817,17.06277 5.39579,-10.7429 -16.66076,2.17939 -10.37618,6.24251 20.61683,20.10128 45.62144,34.85621 69.69681,50.251 18.03821,19.74272 -19.55844,20.01073 -29.38652,8.72465 -18.0495,-9.3719 -30.89377,-26.23153 -47.40918,-37.1496 -16.65451,11.07229 -29.70714,28.37515 -48.2225,37.59739 -9.8581,11.1588 -45.89169,11.21635 -27.97968,-8.53195 19.29642,-13.21213 39.91789,-24.66316 57.49217,-40.35102 3.19242,-4.32865 14.29955,-8.27026 12.50725,-12.85019 -7.07085,-7.67175 -14.72533,-3.59827 -20.47449,-14.66834 -9.38276,-4.90022 -12.18838,-8.83285 -4.57219,-9.49483 -15.57533,-3.56839 -25.74867,-16.52874 -38.34812,-25.52322 -34.027147,-25.84396 -67.860843,-52.05653 -102.728274,-76.72865 -10.688921,2.21177 5.828389,25.76701 9.93929,33.42566 24.182059,35.45142 55.734321,65.3431 88.764634,92.44481 18.02047,18.29795 26.28115,-30.06812 40.76472,-5.02757 21.27247,11.89953 -4.60612,22.55332 -15.16012,30.73569 -13.52514,10.82301 -32.31782,14.98281 -42.59481,29.54932 -6.93569,18.07425 18.1511,29.26912 32.3092,20.79501 z m -15.2766,-87.36095 C 91.840053,237.77156 60.326448,211.54151 39.294067,177.16506 c 12.00362,8.44754 22.95474,21.94227 34.729456,32.20371 18.291118,16.4557 36.043777,34.1724 57.214437,46.8406 17.51225,1.69826 -3.09987,23.89842 -9.6044,8.06767 z m 196.28277,-62.21248 c 11.91533,-7.34786 27.56485,-23.97067 39.91332,-22.24932 -10.36622,8.09348 -33.64167,21.46421 -39.91332,22.24932 z m -11.78217,-4.7095 c 11.59755,-13.29072 25.10637,-26.51969 41.56567,-33.37613 0.24712,9.73521 -23.76697,16.56753 -31.53765,26.60471 -1.29847,0.10228 -17.29572,15.70745 -10.02802,6.77142 z m -10.35914,-5.10737 c 11.111,-16.79745 26.08006,-31.53035 43.17734,-42.16315 7.23758,4.80823 -16.99314,15.1113 -21.39357,22.64658 -7.11556,6.14926 -14.79356,15.53484 -21.78377,19.51657 z M 135.78321,337.67962 c 5.76422,-22.24074 -23.23032,4.25575 0,0 z m 127.16719,-0.76903 c 5.21585,-13.66411 -18.69777,-3.89388 -5.08011,1.86345 1.86826,0.34079 3.8476,-0.43909 5.08011,-1.86345 z m -52.74191,-79.78542 c 11.3742,-7.70973 21.36825,-17.24965 31.18006,-26.82624 0.25953,-9.10219 -0.7103,-18.32666 0.96482,-27.32 3.82923,19.7149 31.02691,-4.11974 21.13844,-17.10482 -10.82068,-9.3457 -0.004,-13.9343 4.06509,-23.38579 1.60694,-9.36199 2.91575,-23.13514 -11.24296,-15.73448 -41.79959,7.21123 -84.40378,-0.0552 -125.72435,-6.95334 -13.75835,7.95683 -0.0487,29.493 4.64526,38.19381 -14.20921,10.56859 -0.98226,39.16607 12.71029,30.53464 7.16992,-8.47351 2.89989,16.10001 5.11665,22.35493 11.57373,12.75041 23.14388,30.55792 42.82676,28.00504 4.77053,-0.17225 9.89574,0.40322 14.31994,-1.76375 z m -11.48666,-45.24259 c -18.2018,8.41298 -12.47497,-27.87571 0.65457,-23.06969 4.58474,4.68337 10.67553,24.59005 -0.65457,23.06969 z m 20.9956,-17.84472 c -9.63842,-9.82701 -12.34314,-37.33668 -31.98428,-21.96795 -5.67214,21.19526 -31.40259,15.20303 -37.30321,-2.59502 13.55528,-12.0254 33.51928,1.32736 49.72257,-3.23348 16.05744,3.85641 32.89684,4.1697 49.23604,1.46133 2.37258,15.94559 -12.73672,35.86423 -29.67112,26.33512 z m -117.12375,-5.37217 c -1.41646,-19.56857 22.52384,-30.01859 18.09761,-50.98977 -20.84971,3.68221 -28.954787,30.06279 -22.585591,48.50414 1.776266,6.22649 6.288351,16.03237 4.487981,2.48563 z M 75.496775,170.72381 c 13.636622,-10.3862 19.175358,-29.61145 36.485785,-35.77444 12.08929,-0.0265 20.18419,-19.59135 2.33014,-13.03109 -21.999823,7.14572 -32.09286,30.45079 -43.594415,48.54448 -3.556776,6.40305 3.371683,0.74089 4.77849,0.26105 z m 28.704545,-50.50758 c 12.09156,-4.48442 31.08639,2.48502 25.06801,-18.22276 -0.7432,-10.684013 -13.93272,8.85923 -2.38078,9.85027 -18.88726,-6.93298 -40.056695,7.94148 -44.941242,25.76135 7.903325,-5.11425 13.529264,-13.36016 22.254012,-17.38886 z m 124.2476,11.72824 c 10.33104,-1.52075 24.14284,-1.68441 32.40989,-6.57844 3.43741,-15.68208 -10.44446,-23.3929 -24.39941,-24.5877 -9.88989,1.86754 -13.75466,-21.097533 -1.32085,-9.216194 9.37306,5.86697 28.81015,12.888854 29.23469,-1.83321 11.65534,11.937514 39.01984,3.80493 44.30559,-12.833666 7.64465,-20.448104 -15.44794,-37.001234 -33.90915,-36.902815 -11.34192,-2.261359 -24.62516,5.92296 -33.23674,7.00581 1.36451,-8.366321 17.49783,-11.748093 12.10435,-20.410039 C 242.95614,-6.9303405 196.792,-18.934617 169.91211,2.7524618 156.69197,7.3811475 162.47989,25.74609 160.67108,32.508354 c -9.2382,-15.340032 -35.68105,20.756999 -24.4213,-2.369714 7.02886,-7.077542 18.36063,-12.137676 3.25028,-15.24589 -19.93888,-5.6199619 -48.579062,5.20323 -48.678553,28.884076 -0.76347,21.767769 22.464993,27.991011 35.405123,39.714843 3.35488,17.684351 21.90684,5.732593 29.65043,6.331925 -0.89948,11.769716 -17.38711,10.089878 -21.495,17.911376 -8.93182,18.70181 11.97084,18.68692 25.02734,20.23719 22.80813,3.55982 45.95415,6.01338 69.03952,3.97231 z M 171.46359,96.602186 c -12.94622,-0.73287 -4.26502,-5.813341 2.41219,-10.399031 4.31673,-4.267202 1.52948,9.099746 11.95644,4.377099 12.47961,3.485947 26.59614,-1.415335 27.24849,-7.077956 6.70593,8.169303 7.73872,18.511222 -6.96703,14.969728 -11.53915,-0.136434 -23.38793,1.324229 -34.65009,-1.86984 z"
           id="path170"
           sodipodi:nodetypes="ccsssssssscssssssssscsssssscsscsssssssscssssscssssssssssssssssssssssssssssssscssssssssssssssssscssssscssccssssssssscscscsssccsscccsssscsssscsssssssssssssscccsssssscssscssscsssssscssscsssscssssssscssssscssssscsss" />
        <path
           style="fill:#000000"
           d="m 170.63236,224.81014 c 44.36234,8.6616 56.01177,-14.95348 45.37156,0.53372 -11.11755,13.02791 -26.77352,15.04883 -45.37156,-0.53372 z"
           id="path470"
           sodipodi:nodetypes="ccc" />
      </g>
    </g>
  </g>
</svg>
