<?xml version="1.0" encoding="utf-8"?>
<svg width="16" height="16" fill="currentColor" class="bi bi-basket" viewBox="0 0 16 16" xmlns="http://www.w3.org/2000/svg">
  <path d="M 5.757 0.066 C 5.994 0.199 6.071 0.485 5.929 0.707 L 3.383 4.667 L 12.617 4.667 L 10.07 0.707 C 9.872 0.398 10.106 0.006 10.491 0 C 10.67 -0.003 10.836 0.084 10.928 0.227 L 13.783 4.667 L 15 4.667 C 15.552 4.667 16 5.084 16 5.6 L 16 6.533 C 16 7.049 15.552 7.467 15 7.467 L 15 11.667 C 15 12.955 13.881 14 12.5 14 L 3.5 14 C 2.119 14 1 12.955 1 11.667 L 1 7.467 C 0.448 7.467 0 7.049 0 6.533 L 0 5.6 C 0 5.084 0.448 4.667 1 4.667 L 2.217 4.667 L 5.07 0.227 C 5.212 0.006 5.519 -0.066 5.756 0.066 L 5.757 0.066 Z M 2 7.467 L 2 11.667 C 2 12.44 2.672 13.067 3.5 13.067 L 12.5 13.067 C 13.328 13.067 14 12.44 14 11.667 L 14 7.467 L 2 7.467 Z M 1 5.6 L 1 6.533 L 15 6.533 L 15 5.6 L 1 5.6 Z M 4 8.4 C 4.276 8.4 4.5 8.609 4.5 8.867 L 4.5 11.667 C 4.5 12.026 4.083 12.25 3.75 12.071 C 3.595 11.987 3.5 11.833 3.5 11.667 L 3.5 8.867 C 3.5 8.609 3.724 8.4 4 8.4 Z M 6 8.4 C 6.276 8.4 6.5 8.609 6.5 8.867 L 6.5 11.667 C 6.5 12.026 6.083 12.25 5.75 12.071 C 5.595 11.987 5.5 11.833 5.5 11.667 L 5.5 8.867 C 5.5 8.609 5.724 8.4 6 8.4 Z M 8 8.4 C 8.276 8.4 8.5 8.609 8.5 8.867 L 8.5 11.667 C 8.5 12.026 8.083 12.25 7.75 12.071 C 7.595 11.987 7.5 11.833 7.5 11.667 L 7.5 8.867 C 7.5 8.609 7.724 8.4 8 8.4 Z M 10 8.4 C 10.276 8.4 10.5 8.609 10.5 8.867 L 10.5 11.667 C 10.5 12.026 10.083 12.25 9.75 12.071 C 9.595 11.987 9.5 11.833 9.5 11.667 L 9.5 8.867 C 9.5 8.609 9.724 8.4 10 8.4 Z M 12 8.4 C 12.276 8.4 12.5 8.609 12.5 8.867 L 12.5 11.667 C 12.5 12.026 12.083 12.25 11.75 12.071 C 11.595 11.987 11.5 11.833 11.5 11.667 L 11.5 8.867 C 11.5 8.609 11.724 8.4 12 8.4 Z"/>
</svg>