<?xml version="1.0" encoding="UTF-8"?>
<!DOCTYPE svg PUBLIC "-//W3C//DTD SVG 1.1//EN" "http://www.w3.org/Graphics/SVG/1.1/DTD/svg11.dtd">
<svg xmlns="http://www.w3.org/2000/svg" version="1.1" width="512px" height="512px" style="shape-rendering:geometricPrecision; text-rendering:geometricPrecision; image-rendering:optimizeQuality; fill-rule:evenodd; clip-rule:evenodd" xmlns:xlink="http://www.w3.org/1999/xlink">
<g><path style="opacity:0.951" fill="#000000" d="M 69.5,-0.5 C 111.167,-0.5 152.833,-0.5 194.5,-0.5C 196.144,0.316435 197.31,1.64977 198,3.5C 198.5,10.8258 198.666,18.1591 198.5,25.5C 236.5,25.5 274.5,25.5 312.5,25.5C 312.334,18.1591 312.5,10.8258 313,3.5C 314.032,1.97331 315.199,0.639972 316.5,-0.5C 358.167,-0.5 399.833,-0.5 441.5,-0.5C 442.836,1.01027 444.003,2.67694 445,4.5C 445.5,11.4921 445.666,18.4921 445.5,25.5C 458.213,25.1264 470.88,25.6264 483.5,27C 491.667,29.8333 497.167,35.3333 500,43.5C 500.667,186.167 500.667,328.833 500,471.5C 497.124,481.357 490.624,487.19 480.5,489C 470.839,489.5 461.172,489.666 451.5,489.5C 451.666,495.176 451.499,500.843 451,506.5C 450.003,508.323 448.836,509.99 447.5,511.5C 423.5,511.5 399.5,511.5 375.5,511.5C 374.164,509.99 372.997,508.323 372,506.5C 371.501,500.843 371.334,495.176 371.5,489.5C 294.167,489.5 216.833,489.5 139.5,489.5C 139.666,495.176 139.499,500.843 139,506.5C 138.003,508.323 136.836,509.99 135.5,511.5C 111.5,511.5 87.5,511.5 63.5,511.5C 62.1639,509.99 60.9973,508.323 60,506.5C 59.5006,500.843 59.3339,495.176 59.5,489.5C 49.8276,489.666 40.1609,489.5 30.5,489C 20.3762,487.19 13.8762,481.357 11,471.5C 10.3333,328.833 10.3333,186.167 11,43.5C 13.8333,35.3333 19.3333,29.8333 27.5,27C 40.1202,25.6264 52.7869,25.1264 65.5,25.5C 65.3337,18.4921 65.5004,11.4921 66,4.5C 66.9973,2.67694 68.1639,1.01027 69.5,-0.5 Z M 82.5,15.5 C 115.833,15.5 149.167,15.5 182.5,15.5C 182.5,18.8333 182.5,22.1667 182.5,25.5C 149.167,25.5 115.833,25.5 82.5,25.5C 82.5,22.1667 82.5,18.8333 82.5,15.5 Z M 328.5,15.5 C 361.833,15.5 395.167,15.5 428.5,15.5C 428.5,18.8333 428.5,22.1667 428.5,25.5C 395.167,25.5 361.833,25.5 328.5,25.5C 328.5,22.1667 328.5,18.8333 328.5,15.5 Z M 31.5,42.5 C 180.834,42.3333 330.167,42.5 479.5,43C 481.726,44.2273 483.226,46.0607 484,48.5C 484.5,77.4981 484.667,106.498 484.5,135.5C 331.833,135.5 179.167,135.5 26.5,135.5C 26.3334,106.498 26.5,77.4981 27,48.5C 27.9793,46.0324 29.4793,44.0324 31.5,42.5 Z M 88.5,76.5 C 89.1526,80.0928 89.9859,83.7595 91,87.5C 95.3333,91.5 99.6667,91.5 104,87.5C 105.174,83.9542 105.84,80.2875 106,76.5C 114.796,85.0627 114.629,93.5627 105.5,102C 95.3026,106.406 87.8026,103.573 83,93.5C 81.4376,86.648 83.2709,80.9813 88.5,76.5 Z M 167.5,76.5 C 168.171,79.7577 169.004,83.0911 170,86.5C 174.667,91.8333 179.333,91.8333 184,86.5C 185.153,83.2889 185.82,79.9555 186,76.5C 193.871,83.8586 194.371,91.692 187.5,100C 179.588,106.221 172.088,105.721 165,98.5C 159.847,90.4291 160.681,83.0958 167.5,76.5 Z M 324.5,76.5 C 325.171,79.7577 326.004,83.0911 327,86.5C 331.667,91.8333 336.333,91.8333 341,86.5C 342.153,83.2889 342.82,79.9555 343,76.5C 351.488,84.4437 351.655,92.6104 343.5,101C 330.438,106.969 322.104,102.969 318.5,89C 319.313,84.2089 321.313,80.0422 324.5,76.5 Z M 404.5,76.5 C 405.153,80.0928 405.986,83.7595 407,87.5C 411.333,91.5 415.667,91.5 420,87.5C 421.174,83.9542 421.84,80.2875 422,76.5C 430.796,85.0627 430.629,93.5627 421.5,102C 411.303,106.406 403.803,103.573 399,93.5C 397.438,86.648 399.271,80.9813 404.5,76.5 Z M 26.5,151.5 C 179.167,151.5 331.833,151.5 484.5,151.5C 484.667,256.501 484.5,361.501 484,466.5C 483.315,469.057 481.815,470.891 479.5,472C 330.167,472.667 180.833,472.667 31.5,472C 29.1853,470.891 27.6853,469.057 27,466.5C 26.5,361.501 26.3333,256.501 26.5,151.5 Z M 79.5,209.5 C 196.833,209.5 314.167,209.5 431.5,209.5C 431.5,279.167 431.5,348.833 431.5,418.5C 314.167,418.5 196.833,418.5 79.5,418.5C 79.5,348.833 79.5,279.167 79.5,209.5 Z M 75.5,489.5 C 91.5,489.5 107.5,489.5 123.5,489.5C 123.5,491.5 123.5,493.5 123.5,495.5C 107.5,495.5 91.5,495.5 75.5,495.5C 75.5,493.5 75.5,491.5 75.5,489.5 Z M 387.5,489.5 C 403.5,489.5 419.5,489.5 435.5,489.5C 435.5,491.5 435.5,493.5 435.5,495.5C 419.5,495.5 403.5,495.5 387.5,495.5C 387.5,493.5 387.5,491.5 387.5,489.5 Z"/></g>
<g><path style="opacity:0.93" fill="#000000" d="M 89.5,57.5 C 108.31,54.6483 121.143,61.9817 128,79.5C 132.157,100.026 124.323,113.526 104.5,120C 86.3456,122.511 73.8456,115.344 67,98.5C 63.0514,78.3878 70.5514,64.7212 89.5,57.5 Z M 88.5,76.5 C 83.2709,80.9813 81.4376,86.648 83,93.5C 87.8026,103.573 95.3026,106.406 105.5,102C 114.629,93.5627 114.796,85.0627 106,76.5C 105.84,80.2875 105.174,83.9542 104,87.5C 99.6667,91.5 95.3333,91.5 91,87.5C 89.9859,83.7595 89.1526,80.0928 88.5,76.5 Z"/></g>
<g><path style="opacity:0.932" fill="#000000" d="M 168.5,57.5 C 192.42,54.925 205.753,65.425 208.5,89C 207.343,108.823 196.843,119.323 177,120.5C 157.157,119.323 146.657,108.823 145.5,89C 145.986,73.1732 153.653,62.6732 168.5,57.5 Z M 167.5,76.5 C 160.681,83.0958 159.847,90.4291 165,98.5C 172.088,105.721 179.588,106.221 187.5,100C 194.371,91.692 193.871,83.8586 186,76.5C 185.82,79.9555 185.153,83.2889 184,86.5C 179.333,91.8333 174.667,91.8333 170,86.5C 169.004,83.0911 168.171,79.7577 167.5,76.5 Z"/></g>
<g><path style="opacity:0.931" fill="#000000" d="M 325.5,57.5 C 343.346,54.8377 356.18,61.5044 364,77.5C 368.823,95.393 363.323,108.893 347.5,118C 329.004,124.282 314.837,119.116 305,102.5C 298.353,81.138 305.186,66.138 325.5,57.5 Z M 324.5,76.5 C 321.313,80.0422 319.313,84.2089 318.5,89C 322.104,102.969 330.438,106.969 343.5,101C 351.655,92.6104 351.488,84.4437 343,76.5C 342.82,79.9555 342.153,83.2889 341,86.5C 336.333,91.8333 331.667,91.8333 327,86.5C 326.004,83.0911 325.171,79.7577 324.5,76.5 Z"/></g>
<g><path style="opacity:0.93" fill="#000000" d="M 405.5,57.5 C 424.31,54.6483 437.143,61.9817 444,79.5C 448.157,100.026 440.323,113.526 420.5,120C 402.346,122.511 389.846,115.344 383,98.5C 379.051,78.3878 386.551,64.7212 405.5,57.5 Z M 404.5,76.5 C 399.271,80.9813 397.438,86.648 399,93.5C 403.803,103.573 411.303,106.406 421.5,102C 430.629,93.5627 430.796,85.0627 422,76.5C 421.84,80.2875 421.174,83.9542 420,87.5C 415.667,91.5 411.333,91.5 407,87.5C 405.986,83.7595 405.153,80.0928 404.5,76.5 Z"/></g>
<g><path style="opacity:0.912" fill="#000000" d="M 68.5,192.5 C 192.834,192.333 317.167,192.5 441.5,193C 444.893,193.394 447.06,195.227 448,198.5C 448.667,275.5 448.667,352.5 448,429.5C 447.167,432.333 445.333,434.167 442.5,435C 317.833,435.667 193.167,435.667 68.5,435C 65.6667,434.167 63.8333,432.333 63,429.5C 62.3333,352.5 62.3333,275.5 63,198.5C 64.0209,195.65 65.8542,193.65 68.5,192.5 Z M 79.5,209.5 C 79.5,279.167 79.5,348.833 79.5,418.5C 196.833,418.5 314.167,418.5 431.5,418.5C 431.5,348.833 431.5,279.167 431.5,209.5C 314.167,209.5 196.833,209.5 79.5,209.5 Z"/></g>
<g><path style="opacity:0.911" fill="#000000" d="M 144.5,232.5 C 218.501,232.333 292.501,232.5 366.5,233C 371.738,236.274 372.904,240.774 370,246.5C 368.829,247.893 367.329,248.727 365.5,249C 292.167,249.667 218.833,249.667 145.5,249C 141.181,247.877 139.181,245.044 139.5,240.5C 139.546,236.793 141.213,234.127 144.5,232.5 Z"/></g>
</svg>
