<?xml version="1.0" encoding="utf-8"?>
<svg width="16" height="16" fill="currentColor" class="bi bi-thermometer-snow" viewBox="0 0 16 16" xmlns="http://www.w3.org/2000/svg">
  <path d="M 6.12 12.5 C 6.119 13.655 4.869 14.376 3.869 13.798 C 2.87 13.22 2.87 11.777 3.871 11.2 C 3.95 11.154 4.033 11.116 4.12 11.085 L 4.12 9.5 C 4.12 9.115 4.537 8.875 4.87 9.067 C 5.025 9.157 5.12 9.322 5.12 9.5 L 5.12 11.085 C 5.72 11.297 6.12 11.864 6.12 12.5 Z"/>
  <path d="M 2.12 2.5 C 2.12 0.576 4.203 -0.627 5.87 0.335 C 6.643 0.782 7.12 1.607 7.12 2.5 L 7.12 10.05 C 9.006 11.975 8.101 15.219 5.491 15.89 C 2.882 16.56 0.525 14.155 1.249 11.559 C 1.407 10.991 1.707 10.472 2.12 10.05 L 2.12 2.5 Z M 4.62 1 C 3.792 1 3.12 1.672 3.12 2.5 L 3.12 10.487 L 2.953 10.637 C 1.518 11.92 2.011 14.275 3.839 14.876 C 5.667 15.477 7.46 13.873 7.067 11.989 C 6.957 11.467 6.684 10.993 6.286 10.637 L 6.12 10.486 L 6.12 2.5 C 6.12 1.672 5.448 1 4.62 1 Z M 9.62 2 C 9.896 2 10.12 2.224 10.12 2.5 L 10.12 3.793 L 10.766 3.146 C 11.038 2.874 11.504 2.998 11.604 3.371 C 11.65 3.543 11.6 3.728 11.474 3.854 L 10.12 5.207 L 10.12 7.134 L 11.789 6.171 L 12.284 4.321 C 12.384 3.949 12.849 3.825 13.121 4.098 C 13.247 4.224 13.296 4.409 13.25 4.581 L 13.013 5.463 L 14.133 4.817 C 14.468 4.627 14.883 4.87 14.88 5.255 C 14.879 5.431 14.785 5.594 14.633 5.683 L 13.513 6.329 L 14.397 6.566 C 14.769 6.666 14.893 7.131 14.62 7.403 C 14.494 7.53 14.309 7.579 14.137 7.532 L 12.289 7.037 L 10.62 8 L 12.289 8.963 L 14.138 8.468 C 14.508 8.363 14.854 8.697 14.76 9.071 C 14.715 9.25 14.575 9.39 14.396 9.434 L 13.513 9.671 L 14.633 10.317 C 14.965 10.512 14.962 10.993 14.627 11.183 C 14.474 11.27 14.286 11.27 14.133 11.183 L 13.013 10.537 L 13.25 11.42 C 13.355 11.79 13.021 12.136 12.647 12.042 C 12.468 11.997 12.329 11.857 12.284 11.678 L 11.79 9.83 L 10.12 8.866 L 10.12 10.793 L 11.474 12.146 C 11.746 12.419 11.622 12.884 11.25 12.984 C 11.077 13.03 10.892 12.981 10.766 12.854 L 10.12 12.207 L 10.12 13.5 C 10.12 13.885 9.703 14.126 9.37 13.933 C 9.215 13.844 9.12 13.679 9.12 13.5 L 9.12 2.5 C 9.12 2.224 9.344 2 9.62 2 Z"/>
</svg>