<?xml version="1.0" encoding="UTF-8"?>
<!DOCTYPE svg PUBLIC "-//W3C//DTD SVG 1.1//EN" "http://www.w3.org/Graphics/SVG/1.1/DTD/svg11.dtd">
<svg xmlns="http://www.w3.org/2000/svg" version="1.1" width="512px" height="512px" style="shape-rendering:geometricPrecision; text-rendering:geometricPrecision; image-rendering:optimizeQuality; fill-rule:evenodd; clip-rule:evenodd" xmlns:xlink="http://www.w3.org/1999/xlink">
<g><path style="opacity:0.986" fill="#000000" d="M 80.5,-0.5 C 218.5,-0.5 356.5,-0.5 494.5,-0.5C 502.5,2.83333 508.167,8.5 511.5,16.5C 511.5,89.5 511.5,162.5 511.5,235.5C 510.684,237.144 509.35,238.31 507.5,239C 495.505,239.5 483.505,239.667 471.5,239.5C 471.5,250.167 471.5,260.833 471.5,271.5C 480.25,271.09 488.916,271.59 497.5,273C 504.166,276.492 508.832,281.659 511.5,288.5C 511.5,361.5 511.5,434.5 511.5,507.5C 510.5,509.167 509.167,510.5 507.5,511.5C 339.5,511.5 171.5,511.5 3.5,511.5C 1.83333,510.5 0.5,509.167 -0.5,507.5C -0.5,492.5 -0.5,477.5 -0.5,462.5C 3.98523,446.516 14.3186,436.349 30.5,432C 132.166,431.5 233.833,431.333 335.5,431.5C 335.333,383.832 335.5,336.166 336,288.5C 338.351,281.481 342.851,276.314 349.5,273C 358.084,271.59 366.75,271.09 375.5,271.5C 375.5,260.833 375.5,250.167 375.5,239.5C 363.495,239.667 351.495,239.5 339.5,239C 337.667,238.5 336.5,237.333 336,235.5C 335.5,204.835 335.333,174.168 335.5,143.5C 303.5,143.5 271.5,143.5 239.5,143.5C 239.666,152.839 239.5,162.173 239,171.5C 238.626,172.416 238.126,173.25 237.5,174C 219.594,175.473 201.594,175.973 183.5,175.5C 183.5,186.167 183.5,196.833 183.5,207.5C 210.608,213.1 229.442,228.766 240,254.5C 250,281.833 250,309.167 240,336.5C 220.816,377.997 189.65,391.497 146.5,377C 122.158,361.516 107.992,339.349 104,310.5C 100.025,281.116 107.025,254.782 125,231.5C 136.284,218.44 150.451,210.44 167.5,207.5C 167.5,196.833 167.5,186.167 167.5,175.5C 149.406,175.973 131.406,175.473 113.5,174C 112.874,173.25 112.374,172.416 112,171.5C 111.5,162.173 111.334,152.839 111.5,143.5C 96.8295,143.667 82.1629,143.5 67.5,143C 65.6667,142.5 64.5,141.333 64,139.5C 63.3333,98.5 63.3333,57.5 64,16.5C 67.0191,8.31563 72.5191,2.64896 80.5,-0.5 Z M 87.5,15.5 C 220.834,15.3333 354.167,15.5 487.5,16C 492,16.5 494.5,19 495,23.5C 495.5,31.4931 495.666,39.4931 495.5,47.5C 356.833,47.5 218.167,47.5 79.5,47.5C 79.3336,39.4931 79.5003,31.4931 80,23.5C 80.6804,18.9895 83.1804,16.3228 87.5,15.5 Z M 79.5,63.5 C 218.167,63.5 356.833,63.5 495.5,63.5C 495.5,116.833 495.5,170.167 495.5,223.5C 447.5,223.5 399.5,223.5 351.5,223.5C 351.667,192.832 351.5,162.165 351,131.5C 350.5,129.667 349.333,128.5 347.5,128C 258.167,127.5 168.834,127.333 79.5,127.5C 79.5,106.167 79.5,84.8333 79.5,63.5 Z M 420.5,88.5 C 429.85,88.3654 432.517,92.532 428.5,101C 419.956,104.322 416.123,101.489 417,92.5C 417.69,90.6498 418.856,89.3164 420.5,88.5 Z M 127.5,143.5 C 159.5,143.5 191.5,143.5 223.5,143.5C 223.5,148.833 223.5,154.167 223.5,159.5C 191.5,159.5 159.5,159.5 127.5,159.5C 127.5,154.167 127.5,148.833 127.5,143.5 Z M 166.5,230.5 C 167.665,273.665 167.831,316.998 167,360.5C 158.717,346.313 154.05,330.98 153,314.5C 150.294,289.537 152.961,265.204 161,241.5C 162.847,237.807 164.68,234.14 166.5,230.5 Z M 183.5,230.5 C 189.154,238.598 192.987,247.598 195,257.5C 199.667,282.833 199.667,308.167 195,333.5C 192.891,343.165 189.225,352.165 184,360.5C 183.5,317.168 183.333,273.835 183.5,230.5 Z M 206.5,237.5 C 222.986,253.156 231.319,272.489 231.5,295.5C 231.275,318.273 223.108,337.606 207,353.5C 215.516,325.479 217.85,296.813 214,267.5C 212.434,257.234 209.934,247.234 206.5,237.5 Z M 143.5,238.5 C 132.833,276.5 132.833,314.5 143.5,352.5C 127.592,336.997 119.592,317.997 119.5,295.5C 119.592,273.003 127.592,254.003 143.5,238.5 Z M 391.5,239.5 C 412.833,239.5 434.167,239.5 455.5,239.5C 455.5,250.167 455.5,260.833 455.5,271.5C 434.167,271.5 412.833,271.5 391.5,271.5C 391.5,260.833 391.5,250.167 391.5,239.5 Z M 359.5,287.5 C 402.168,287.333 444.835,287.5 487.5,288C 492,288.5 494.5,291 495,295.5C 495.5,362.166 495.667,428.833 495.5,495.5C 335.5,495.5 175.5,495.5 15.5,495.5C 15.3336,487.493 15.5003,479.493 16,471.5C 16.9046,460.6 22.4046,453.1 32.5,449C 138.222,448.011 243.888,447.011 349.5,446C 350.126,445.25 350.626,444.416 351,443.5C 351.333,394.167 351.667,344.833 352,295.5C 352.68,290.989 355.18,288.323 359.5,287.5 Z M 422.5,383.5 C 450.877,387.039 464.043,403.039 462,431.5C 454.842,454.965 439.009,465.132 414.5,462C 392.074,454.56 382.241,439.06 385,415.5C 390.347,396.312 402.847,385.645 422.5,383.5 Z"/></g>
<g><path style="opacity:0.933" fill="#000000" d="M 416.5,71.5 C 431.367,69.0115 441.534,74.6782 447,88.5C 449.982,103.376 444.482,113.543 430.5,119C 415.624,121.982 405.457,116.482 400,102.5C 397.146,87.5328 402.646,77.1994 416.5,71.5 Z M 420.5,88.5 C 418.856,89.3164 417.69,90.6498 417,92.5C 416.123,101.489 419.956,104.322 428.5,101C 432.517,92.532 429.85,88.3654 420.5,88.5 Z"/></g>
<g><path style="opacity:1" fill="#000000" d="M 111.5,87.5 C 170.167,87.5 228.833,87.5 287.5,87.5C 287.5,92.8333 287.5,98.1667 287.5,103.5C 228.833,103.5 170.167,103.5 111.5,103.5C 111.5,98.1667 111.5,92.8333 111.5,87.5 Z"/></g>
<g><path style="opacity:1" fill="#000000" d="M 303.5,87.5 C 308.833,87.5 314.167,87.5 319.5,87.5C 319.5,92.8333 319.5,98.1667 319.5,103.5C 314.167,103.5 308.833,103.5 303.5,103.5C 303.5,98.1667 303.5,92.8333 303.5,87.5 Z"/></g>
<g><path style="opacity:1" fill="#000000" d="M 335.5,87.5 C 340.833,87.5 346.167,87.5 351.5,87.5C 351.5,92.8333 351.5,98.1667 351.5,103.5C 346.167,103.5 340.833,103.5 335.5,103.5C 335.5,98.1667 335.5,92.8333 335.5,87.5 Z"/></g>
<g><path style="opacity:1" fill="#000000" d="M 367.5,87.5 C 372.833,87.5 378.167,87.5 383.5,87.5C 383.5,92.8333 383.5,98.1667 383.5,103.5C 378.167,103.5 372.833,103.5 367.5,103.5C 367.5,98.1667 367.5,92.8333 367.5,87.5 Z"/></g>
<g><path style="opacity:0.934" fill="#000000" d="M 412.5,367.5 C 447.043,364.585 469.21,379.585 479,412.5C 482.452,437.073 474.285,456.573 454.5,471C 436.037,481.158 417.037,482.158 397.5,474C 373.911,460.316 364.077,439.816 368,412.5C 373.681,388.32 388.514,373.32 412.5,367.5 Z M 422.5,383.5 C 402.847,385.645 390.347,396.312 385,415.5C 382.241,439.06 392.074,454.56 414.5,462C 439.009,465.132 454.842,454.965 462,431.5C 464.043,403.039 450.877,387.039 422.5,383.5 Z"/></g>
<g><path style="opacity:0.926" fill="#000000" d="M 416.5,399.5 C 429.727,396.88 434.06,401.713 429.5,414C 425.507,415.122 421.674,416.622 418,418.5C 414.833,428.667 418.333,432.167 428.5,429C 430.378,425.326 431.878,421.493 433,417.5C 445.447,412.939 450.114,417.272 447,430.5C 441.543,444.482 431.376,449.982 416.5,447C 402.518,441.543 397.018,431.376 400,416.5C 403.019,408.316 408.519,402.649 416.5,399.5 Z"/></g>
</svg>
