<?xml version="1.0" encoding="utf-8"?>
<svg width="448px" height="448px" viewBox="0 0 512 448" version="1.1" id="svg1" xmlns="http://www.w3.org/2000/svg">
  <path style="fill: currentcolor; stroke: currentcolor; stroke-linecap: square; stroke-width: 8px;" d="M 33.956 440.179 C 22.584 438.51 9.732 429.878 4.409 420.334 C 2.928 417.658 1.259 413.027 0.724 409.971 C 0.126 406.475 -0.127 354.847 0.062 268.289 C 0.377 120.904 0.031 130.669 5.511 121.597 C 8.315 116.935 16.536 109.753 21.67 107.455 C 30.647 103.454 32.979 103.265 68.351 103.233 L 101.899 103.233 L 103.126 96.871 C 103.946 92.681 105.427 88.965 107.505 85.941 C 111.033 80.774 118.593 75.262 124.2 73.782 C 128.296 72.68 128.357 72.522 126.94 64.867 C 123.256 44.866 123.885 36.928 130.09 25.651 C 143.508 1.145 178.283 -7.359 204.459 7.476 C 218.854 15.603 228.462 30.754 228.367 45.18 C 228.367 47.952 226.414 61.874 224.053 76.081 C 221.72 90.319 219.989 102.225 220.209 102.572 C 220.461 102.95 242.7 103.233 269.663 103.233 C 323.81 103.233 323.179 103.17 333.354 108.84 C 340.063 112.557 345.292 117.849 348.977 124.685 L 352.065 130.385 L 352.347 189.415 L 352.6 248.444 L 423.378 310.497 C 491.447 370.188 494.314 372.834 497.748 379.039 C 504.771 391.765 504.835 405.121 497.904 417.468 C 490.344 430.95 475.95 439.266 457.68 440.715 C 446.404 441.629 433.048 437.911 423.976 431.359 C 421.992 429.941 405.487 413.404 387.344 394.631 C 369.169 375.858 353.922 360.36 353.418 360.204 C 352.946 360.045 352.569 370.787 352.569 385.308 C 352.569 408.554 352.379 411.074 350.553 415.735 C 345.513 428.556 333.448 437.691 318.171 440.211 C 311.777 441.282 41.231 441.251 33.956 440.179 Z M 321.416 424.334 C 326.518 422.13 331.653 417.531 333.921 413.153 C 335.621 409.908 335.748 406.915 335.779 375.543 L 335.811 341.429 L 328.818 334.153 C 324.944 330.152 321.636 326.751 321.447 326.561 C 321.227 326.373 319.021 327.854 316.534 329.87 C 314.045 331.854 310.013 334.279 307.588 335.224 C 302.17 337.335 293.193 337.46 287.869 335.508 C 285.16 334.531 265.221 317.647 217.501 275.943 L 150.911 217.732 L 146.753 222.552 C 141.492 228.662 134.5 233.482 125.586 237.167 C 116.293 240.979 110.781 242.05 100.324 242.081 C 72.825 242.113 49.2 225.292 43.152 201.416 C 41.483 194.739 42.397 181.823 45.043 174.579 C 49.358 162.893 61.234 150.955 74.305 145.19 C 79.597 142.859 88.858 140.623 96.637 139.804 L 101.3 139.331 L 101.3 128.118 L 101.3 116.873 L 69.045 117.156 L 36.758 117.439 L 31.026 119.927 C 24.474 122.732 19.308 128.181 17.607 134.008 C 16.914 136.464 16.568 180.438 16.568 272.51 C 16.568 405.151 16.599 407.483 18.552 412.019 C 20.946 417.658 26.427 422.476 32.916 424.714 C 37.64 426.318 41.483 426.382 177.654 426.194 C 313.856 426.004 317.667 425.973 321.416 424.334 Z M 191.325 410.947 C 188.552 409.971 186.032 406.758 186.032 404.207 C 186.032 402.884 188.111 400.27 191.922 396.805 C 201.466 388.079 203.641 381.622 200.144 372.141 C 195.608 359.856 178.221 353.903 164.583 359.982 C 159.448 362.281 156.455 362.281 153.179 360.014 C 151.132 358.628 150.564 357.462 150.564 354.816 C 150.564 350.406 153.21 348.013 160.991 345.43 C 177.118 340.075 194.914 343.603 206.759 354.565 C 222.068 368.739 222.037 390.221 206.728 404.396 C 202.223 408.554 196.585 411.892 194.254 411.735 C 193.814 411.703 192.489 411.358 191.325 410.947 Z M 109.174 388.142 C 101.614 386.284 95.094 382.851 89.676 377.843 C 73.454 362.848 74.369 339.76 91.724 326.026 C 94.906 323.506 98.59 321.207 99.946 320.923 C 105.205 319.758 111.128 324.767 109.836 329.271 C 109.489 330.499 106.56 333.775 103.379 336.516 C 98.843 340.453 97.236 342.564 95.977 346.217 C 94.025 352.045 94.025 353.462 95.946 359.132 C 97.93 364.959 103.662 370.471 110.404 373.023 C 116.672 375.354 125.302 375.071 131.602 372.267 C 136.516 370.062 139.508 369.936 142.532 371.795 C 148.265 375.323 146.816 381.906 139.571 385.15 C 130.341 389.276 118.561 390.443 109.174 388.142 Z M 205.216 323.065 C 201.31 321.648 200.522 319.821 200.396 311.569 C 200.271 305.269 199.83 302.906 198.16 300.103 C 191.671 289.361 176.362 284.92 164.266 290.306 C 159.353 292.48 153.148 298.874 151.667 303.253 C 149.116 310.655 142.249 313.238 137.115 308.733 C 134.94 306.843 134.626 305.93 135.035 302.811 C 137.051 287.22 155.542 273.864 175.291 273.738 C 196.112 273.643 212.965 285.865 216.775 303.851 C 219.517 316.734 213.878 326.12 205.216 323.065 Z M 47.846 321.302 C 43.941 318.624 39.373 312.009 37.231 305.93 C 32.726 293.142 36.349 280.038 47.248 269.99 C 60.698 257.515 82.81 255.28 99.568 264.634 C 107.002 268.825 109.521 271.785 108.828 275.596 C 107.632 282.148 100.606 283.534 93.521 278.588 C 82.715 271.092 68.541 271.659 59.028 279.975 C 54.461 283.975 52.792 287.408 52.256 293.802 C 51.847 298.717 52.162 300.197 54.335 304.166 C 55.752 306.717 57.894 309.835 59.06 311.127 C 65.485 318.056 55.847 326.783 47.846 321.302 Z M 468.012 423.642 C 474.691 420.901 480.235 416.082 483.478 410.066 C 485.589 406.191 486.061 404.081 486.061 398.443 C 486.061 385.622 488.077 387.796 424.921 332.484 L 369.326 283.785 L 351.12 299.755 L 332.882 315.695 L 382.934 367.416 C 414.243 399.734 434.529 420.019 437.112 421.5 C 446.151 426.73 458.311 427.579 468.012 423.642 Z M 446.593 403.482 C 441.081 398.254 446.151 390.031 453.996 391.513 C 460.579 392.773 462.688 399.892 457.617 403.703 C 453.964 406.475 449.679 406.381 446.593 403.482 Z M 329.795 297.677 C 344.599 284.7 356.569 273.77 356.379 273.329 C 356.16 272.919 308.343 231.026 250.07 180.249 C 158.124 100.052 143.635 87.767 140.233 86.979 C 133.019 85.31 124.641 88.429 121.333 94.035 C 119.224 97.594 117.774 118.478 118.309 137.694 C 118.656 150.388 119.002 152.718 121.459 159.27 C 124.736 167.964 126.752 171.618 132.452 179.083 C 137.555 185.73 292.782 321.806 295.901 322.341 C 296.972 322.529 298.988 322.373 300.374 321.963 C 301.729 321.584 314.99 310.655 329.795 297.677 Z M 333.732 130.796 C 332.566 128.432 329.858 125.125 327.684 123.424 C 319.841 117.188 322.928 117.47 259.456 117.219 L 202.287 116.966 L 268.813 175.177 L 335.307 233.387 L 335.558 184.218 C 335.811 135.709 335.779 134.984 333.732 130.796 Z M 117.49 224.505 C 125.082 221.418 131.098 217.04 135.288 211.59 L 138.658 207.212 L 129.964 199.275 C 117.018 187.431 107.6 172.909 104.104 159.396 C 103.442 156.845 102.34 154.577 101.614 154.325 C 99.126 153.506 87.977 155.805 81.959 158.388 C 73.958 161.821 64.886 170.231 61.769 177.067 C 59.91 181.194 59.501 183.745 59.469 191.179 C 59.437 199.998 59.564 200.502 63.123 206.834 C 68.604 216.504 78.778 224.001 89.993 226.553 C 91.598 226.93 97.141 227.151 102.308 227.088 C 110.214 226.93 112.545 226.521 117.49 224.505 Z M 91.505 211.338 C 82.684 207.999 76.919 201.353 76.006 193.509 C 75.534 189.477 75.754 188.596 77.802 186.611 C 83.062 181.477 92.449 184.847 92.449 191.872 C 92.449 194.644 95.567 197.037 101.3 198.644 C 105.364 199.81 107.064 200.787 108.041 202.644 C 109.616 205.51 108.923 208.629 106.213 210.992 C 103.82 213.07 96.545 213.259 91.505 211.338 Z M 203.137 100.43 C 206.759 82.35 211.768 46.819 211.326 42.441 C 209.121 20.957 183.04 8.326 160.707 17.933 C 148.707 23.099 139.823 36.203 141.272 46.724 C 141.461 48.172 142.375 54.536 143.288 60.835 L 144.958 72.301 L 150.88 74.915 C 155.258 76.869 160.707 80.901 171.669 90.382 L 186.536 103.201 L 194.569 103.201 L 202.569 103.233 L 203.137 100.43 Z M 174.22 50.913 C 170.85 49.843 168.298 46.882 168.298 44.015 C 168.298 38.282 175.575 34.944 180.962 38.251 C 186.222 41.463 185.434 48.172 179.543 50.315 C 177.717 50.976 176.142 51.48 175.985 51.448 C 175.827 51.417 175.039 51.166 174.22 50.913 Z M 394.967 244.916 C 387.122 239.152 378.208 225.135 375.09 213.763 C 372.507 204.283 372.916 187.84 375.972 179.461 C 379.91 168.719 385.863 160.215 395.408 151.805 C 403.282 144.875 405.581 143.426 414.653 139.583 C 428.512 133.757 437.144 132.181 451.948 132.78 C 469.177 133.44 481.652 137.472 495.606 146.891 C 502.126 151.269 504.678 154.829 503.827 158.293 C 503.418 159.9 487.7 174.201 453.743 203.904 C 399.092 251.657 401.675 249.861 394.967 244.916 Z M 410.117 213.386 C 407.471 208.409 407.251 207.117 407.251 198.423 C 407.251 189.163 407.345 188.722 410.936 182.327 C 421.205 164.183 446.877 156.53 466.942 165.695 L 471.477 167.743 L 477.651 162.294 L 483.825 156.845 L 479.509 154.64 C 477.147 153.443 472.107 151.364 468.327 150.072 C 462.059 147.899 460.232 147.679 448.609 147.647 C 438.592 147.616 434.655 147.962 430.402 149.253 C 417.015 153.253 404.762 161.916 397.896 172.184 C 391.595 181.571 390.494 185.667 390.555 198.896 C 390.587 209.448 390.84 211.086 393.233 216.378 C 394.714 219.591 397.045 223.811 398.463 225.764 L 401.045 229.324 L 406.999 224.064 L 412.983 218.835 L 410.117 213.386 Z M 456.295 177.603 C 448.893 174.799 436.199 177.477 430.214 183.052 C 424.354 188.532 421.709 198.99 424.512 205.479 L 425.552 207.842 L 442.277 193.258 L 459.004 178.642 L 456.295 177.603 Z M 422.78 71.104 C 374.24 28.643 373.232 27.73 373.232 24.423 C 373.232 21.493 373.893 20.485 378.051 16.989 C 380.697 14.752 385.895 11.35 389.642 9.397 C 413.267 -2.887 441.017 -3.14 465.871 8.704 C 474.691 12.925 488.299 24.423 493.368 31.983 C 510.284 57.214 506.567 89.563 484.391 110.352 C 480.612 113.88 479.478 114.447 476.139 114.447 C 472.359 114.447 471.288 113.565 422.78 71.104 Z M 479.037 92.587 C 484.99 83.703 488.14 72.018 487.227 62.41 C 483.856 27.793 445.049 6.059 407.849 17.997 C 402.022 19.856 393.927 23.761 393.927 24.706 C 393.927 25.021 396.509 27.509 399.659 30.25 L 405.393 35.195 L 410.904 32.991 C 427.41 26.376 445.365 29.147 458.059 40.267 C 470.752 51.355 473.903 67.072 466.375 81.499 L 463.823 86.318 L 469.492 91.327 C 472.611 94.098 475.477 96.335 475.824 96.335 C 476.203 96.335 477.651 94.633 479.037 92.587 Z M 453.112 71.136 C 456.925 58.82 446.687 45.874 431.757 44.14 C 427.064 43.606 418.559 44.897 418.559 46.156 C 418.559 46.944 450.373 74.79 451.286 74.79 C 451.664 74.79 452.484 73.152 453.112 71.136 Z" id="path1"/>
</svg>