<?xml version="1.0" encoding="utf-8"?>
<svg fill="#000000" height="512px" width="800px" version="1.1" id="Layer_1" viewBox="0 0 600 512" xmlns="http://www.w3.org/2000/svg">
  <g transform="matrix(1, 0, 0, 1, 0.00052, 0)">
    <g>
      <path d="M351.476,183.607h-5.246v-35.672c0-31.933-21.41-58.942-50.623-67.474V15.738c0-5.79-3.179-11.112-8.277-13.857 c-5.097-2.746-11.289-2.47-16.124,0.719l-47.738,31.475c-4.416,2.911-7.075,7.848-7.075,13.138v33.894 c-28.134,9.189-48.525,35.665-48.525,66.828v35.672h-7.344c-19.67,0-35.672,16.002-35.672,35.672v257.049 c0,19.67,16.002,35.672,35.672,35.672h190.951c19.67,0,35.672-16.002,35.672-35.672V219.279 C387.148,199.609,371.146,183.607,351.476,183.607z M247.869,55.689l16.262-10.723V77.64h-16.262V55.689z M199.344,147.935 c0-21.405,17.414-38.82,38.82-38.82h37.771c21.405,0,38.82,17.414,38.82,38.82v35.672h-115.41V147.935z M264.131,215.082v121.705 h-16.262V215.082H264.131z M156.328,219.279c0-2.314,1.883-4.197,4.197-4.197h55.869v121.705h-60.066V219.279z M355.672,476.328 c0,2.314-1.882,4.197-4.197,4.197H160.525c-2.315,0-4.197-1.882-4.197-4.197V368.263h199.344V476.328z M355.672,336.787h-60.066 V215.082h55.869c2.315,0,4.197,1.882,4.197,4.197V336.787z"/>
    </g>
  </g>
</svg>