<?xml version="1.0" encoding="utf-8"?>
<svg version="1.1" id="svg1" width="62px" height="62px" viewBox="0 0 62 62" xmlns="http://www.w3.org/2000/svg">
  <g id="g1" transform="matrix(1.060984, 0, 0, 1.088696, -4.488302, -5.806381)">
    <path style="fill:#000000" d="m 19.555555,60.444442 c -0.488889,-0.488889 -0.888889,-1.968889 -0.888889,-3.288889 0,-1.32 2.154578,-4.554578 4.787952,-7.187951 3.12868,-3.128681 5.785574,-4.645806 7.666666,-4.377778 1.765112,0.251502 3.037387,1.523777 3.288889,3.288889 0.268028,1.881092 -1.249097,4.537985 -4.377778,7.666666 -2.633373,2.633374 -5.867951,4.787952 -7.187951,4.787952 -1.32,0 -2.8,-0.4 -3.288889,-0.888889 z m 8.58989,-6.654279 c 1.163585,-1.351257 2.599577,-3.299537 3.191093,-4.32951 0.785448,-1.367656 0.570462,-1.582642 -0.797195,-0.797194 -1.029972,0.591516 -2.978252,2.027508 -4.32951,3.191093 -1.351257,1.163585 -3.046673,3.217739 -3.767591,4.564786 -1.127925,2.107546 -0.969129,2.266342 1.138417,1.138417 1.347047,-0.720918 3.401201,-2.416334 4.564786,-3.767592 z m 12.148423,-5.908532 c -2.382481,-2.329317 -4.679739,-5.621485 -5.105018,-7.315929 -0.425278,-1.694445 -0.381337,-3.71491 0.09765,-4.489923 0.478984,-0.775012 2.23547,-1.409114 3.903302,-1.409114 1.72092,0 5.173307,2.140886 7.982523,4.950102 3.567456,3.567456 4.839898,5.895094 4.555556,8.333333 -0.29032,2.489488 -1.280526,3.486709 -3.748387,3.774941 -2.310233,0.269823 -4.701751,-0.926122 -7.685623,-3.84341 z m 9.039463,-0.01497 c 0,-0.806667 -2.039999,-3.506667 -4.533333,-6 -2.493333,-2.493333 -5.193333,-4.533333 -5.999999,-4.533333 -0.806667,0 -1.466667,0.66 -1.466667,1.466667 0,0.806666 2.04,3.506666 4.533333,5.999999 2.493333,2.493334 5.193333,4.533333 6,4.533333 0.806666,0 1.466666,-0.66 1.466666,-1.466666 z M 11.666666,41.226533 C 10.383333,40.47906 9.333333,38.718416 9.333333,37.31399 c 0,-1.404426 1.160555,-3.174612 2.579011,-3.933746 1.418456,-0.759135 4.757901,-1.380245 7.420989,-1.380245 2.663087,0 6.002532,0.62111 7.420988,1.380245 1.418456,0.759134 2.579011,2.538024 2.579011,3.953088 0,1.415064 -1.160555,3.193953 -2.579011,3.953088 -1.418456,0.759135 -4.868456,1.362 -7.666666,1.3397 C 16.289444,42.60382 12.95,41.974006 11.666666,41.226533 Z m 12.333333,-2.580285 c 1.777778,-1.167037 1.777778,-1.458796 0,-2.625832 -1.1,-0.722104 -3.2,-1.312917 -4.666666,-1.312917 -1.466667,0 -3.566667,0.590813 -4.666667,1.312917 -1.777778,1.167036 -1.777778,1.458795 0,2.625832 1.1,0.722104 3.2,1.312916 4.666667,1.312916 1.466666,0 3.566666,-0.590812 4.666666,-1.312916 z m 24.333332,-2.195957 c -0.916666,-0.369883 -1.666666,-1.758321 -1.666666,-3.085418 0,-1.327097 0.949072,-2.777097 2.10905,-3.222222 1.159977,-0.445126 3.810905,-0.809319 5.89095,-0.809319 2.080045,0 4.730972,0.364193 5.890949,0.809319 1.159978,0.445125 2.10905,1.880931 2.10905,3.190681 0,1.30975 -0.949072,2.745556 -2.10905,3.190682 -1.159977,0.445125 -4.009977,0.761949 -6.333333,0.704055 -2.323355,-0.05789 -4.974283,-0.407895 -5.89095,-0.777778 z m 9,-3.116959 c 0,-0.733333 -1.2,-1.333333 -2.666666,-1.333333 -1.466667,0 -2.666667,0.6 -2.666667,1.333333 0,0.733333 1.2,1.333333 2.666667,1.333333 1.466666,0 2.666666,-0.6 2.666666,-1.333333 z M 4.6198315,29.257552 c -0.4789842,-0.775013 -0.5222726,-2.798078 -0.096197,-4.4957 0.4260761,-1.697623 3.224411,-5.299768 6.2185225,-8.004767 3.499864,-3.161917 6.481917,-4.770386 8.350839,-4.5043 1.859859,0.264795 3.063929,1.520863 3.342652,3.487003 0.311025,2.194002 -1.259835,4.768607 -5.491228,9 -3.259781,3.259782 -7.1704142,5.926877 -8.6902929,5.926877 -1.5198787,0 -3.1553119,-0.634101 -3.6342956,-1.409113 z M 14.666666,22.666666 c 2.933333,-2.933333 5.333333,-5.988564 5.333333,-6.789402 0,-0.835365 -1.827132,-0.388966 -4.286153,1.04718 -2.357384,1.376786 -5.412615,4.432017 -6.7894018,6.789402 -1.4361458,2.459021 -1.8825451,4.286153 -1.0471798,4.286153 0.8008377,0 3.8560686,-2.4 6.7894016,-5.333333 z m 14.713578,4.087655 c -0.759135,-1.418456 -1.380245,-5.657901 -1.380245,-9.420988 0,-3.763088 0.62111,-8.0025324 1.380245,-9.4209886 0.759135,-1.4184562 2.538024,-2.5790113 3.953088,-2.5790113 1.415064,0 3.193954,1.1605551 3.953088,2.5790113 0.759135,1.4184562 1.380245,5.6579006 1.380245,9.4209886 0,3.763087 -0.62111,8.002532 -1.380245,9.420988 -0.759134,1.418456 -2.538024,2.579011 -3.953088,2.579011 -1.415064,0 -3.193953,-1.160555 -3.953088,-2.579011 z m 5.953088,-5.420988 c 0.483201,-2.2 0.483201,-5.8 0,-8 -0.483201,-2.2 -1.383201,-4 -2,-4 -0.616799,0 -1.516799,1.8 -2,4 -0.483201,2.2 -0.483201,5.8 0,8 0.483201,2.199999 1.383201,3.999999 2,3.999999 0.616799,0 1.516799,-1.8 2,-3.999999 z m 6.619831,5.257552 c -0.478984,-0.775013 -0.522272,-2.798078 -0.0962,-4.4957 0.426076,-1.697622 3.224411,-5.299768 6.218522,-8.004767 3.499864,-3.161917 6.481917,-4.7703853 8.35084,-4.5042995 1.859859,0.2647953 3.063929,1.5208635 3.342652,3.4870025 0.311025,2.194003 -1.259835,4.768607 -5.491228,9 -3.259783,3.259783 -7.170415,5.926878 -8.690293,5.926878 -1.519879,0 -3.155312,-0.634101 -3.634297,-1.409114 z m 10.046835,-6.590886 c 2.933333,-2.933333 5.333333,-5.948741 5.333333,-6.700906 0,-0.786988 -1.653523,-0.512504 -3.894882,0.646548 -2.142185,1.107767 -5.142185,3.765797 -6.666666,5.906734 -1.524482,2.140937 -2.771785,4.24999 -2.771785,4.686785 0,0.436795 0.6,0.794172 1.333334,0.794172 0.733333,0 3.733333,-2.4 6.666666,-5.333333 z" id="path1"/>
  </g>
</svg>