<?xml version="1.0" encoding="utf-8"?>
<svg width="2048px" height="2048px" style="shape-rendering:geometricPrecision; text-rendering:geometricPrecision; image-rendering:optimizeQuality; fill-rule:evenodd; clip-rule:evenodd" viewBox="0 0 2048 2048" xmlns="http://www.w3.org/2000/svg">
  <defs>
    <style type="text/css">
   
    .fil1 {fill:none}
    .fil0 {fill:#424242;fill-rule:nonzero}
   
  </style>
  </defs>
  <g id="Layer_x0020_1">
    <path class="fil0" d="M1792 742.568c0,-17.6728 -14.328,-32.0008 -32.0008,-32.0008l-25.1256 45.1252 -695.923 73.1268 -569.45 -25.2933 -155.44 -60.9579c0,-17.6728 -8.39056,-32.0008 -26.0634,-32.0008 -17.6728,0 -32.0008,14.328 -32.0008,32.0008 0,212.073 85.9631,404.074 224.946,543.057 138.982,138.983 330.983,224.946 543.056,224.946 212.073,0 404.074,-85.9631 543.056,-224.946 138.983,-138.983 224.946,-330.984 224.946,-543.057z &quot; stroke=&quot;currentColor" style="stroke: currentcolor; paint-order: fill; stroke-width: 50px; fill: none;"/>
    <path class="fil0" d="M1024 784.645c202.669,0 385.472,-8.52875 517.182,-22.3134 115.426,-12.0803 186.819,-20.6103 186.819,-22.7232 0,-2.11063 -71.3918,-10.6429 -186.817,-22.7244 -131.71,-13.7847 -314.514,-22.3134 -517.183,-22.3134 -202.669,0 -385.473,8.52875 -517.183,22.3134 -115.426,12.0815 -186.817,20.6138 -186.817,22.7244 0,2.11299 71.393,10.6429 186.819,22.7232 131.71,13.7847 314.512,22.3134 517.182,22.3134zm523.682 41.1874c-134.666,14.0941 -319.869,22.8142 -523.682,22.8142 -203.814,0 -389.016,-8.72009 -523.682,-22.8142 -150.951,-15.7996 -244.319,-45.7926 -244.319,-86.2241 0,-40.4351 93.3662,-70.4245 244.318,-86.2253 134.666,-14.0941 319.87,-22.8142 523.683,-22.8142 203.814,0 389.018,8.72009 523.683,22.8142 150.952,15.8008 244.318,45.7902 244.318,86.2253 0,40.4315 -93.3686,70.4245 -244.319,86.2241z" style="stroke: currentcolor; paint-order: fill; stroke-width: 50px; fill: none;"/>
    <path class="fil0" d="M688.104 1468.83l-47.8016 159.427 -0.0425197 -0.0129921c-5.0752,16.9276 4.53426,34.767 21.4618,39.8422 3.50315,1.05 7.0441,1.46929 10.5047,1.32756 126.203,5.15079 321.852,3.17008 495.56,1.4126 90.8918,-0.920079 175.755,-1.77992 241.175,-1.51654l0 0.124016c17.6728,0.0708662 32.0575,-14.198 32.1284,-31.8709 0.022441,-5.64095 -1.41732,-10.9453 -3.96024,-15.5575l-70.017 -156.552c-106.051,50.3776 -222.898,77.1166 -343.113,77.1166 -117.496,0 -231.77,-25.5484 -335.896,-73.7398z" style="stroke: currentcolor; paint-order: fill; stroke-width: 50px; fill: none;"/>
    <path class="fil0" d="M941.482 427.566c9.38859,-14.9114 4.91103,-34.6111 -10.0004,-43.9996 -14.9114,-9.38859 -34.6111,-4.91103 -43.9996,10.0004 -65.7804,103.891 -34.702,157.893 -4.91575,209.652 17.8677,31.0465 35.0362,60.8823 4.66536,110.848 -9.11221,15.0496 -4.29922,34.6382 10.7504,43.7504 15.0496,9.11221 34.6382,4.29922 43.7504,-10.7504 49.8969,-82.0902 23.5264,-127.912 -3.91654,-175.598 -20.3764,-35.4071 -41.6374,-72.352 3.66614,-143.902z" style="stroke: currentcolor; paint-order: fill; stroke-width: 50px; fill: none;"/>
    <path class="fil0" d="M1165.48 427.566c9.38859,-14.9114 4.91103,-34.6111 -10.0004,-43.9996 -14.9114,-9.38859 -34.6111,-4.91103 -43.9996,10.0004 -65.7804,103.891 -34.702,157.893 -4.91575,209.652 17.8677,31.0465 35.0362,60.8823 4.66536,110.848 -9.11221,15.0496 -4.29922,34.6382 10.7504,43.7504 15.0496,9.11221 34.6382,4.29922 43.7504,-10.7504 49.8969,-82.0902 23.5264,-127.912 -3.91654,-175.598 -20.3764,-35.4071 -41.6374,-72.352 3.66614,-143.902z" style="stroke: currentcolor; paint-order: fill; stroke-width: 50px; fill: none;"/>
  </g>
  <rect class="fil1" width="2048" height="2048"/>
</svg>