<?xml version='1.0' encoding='iso-8859-1'?>
<!DOCTYPE svg PUBLIC '-//W3C//DTD SVG 1.1//EN' 'http://www.w3.org/Graphics/SVG/1.1/DTD/svg11.dtd'>
<!-- Uploaded to: SVG Repo, www.svgrepo.com, Generator: SVG Repo Mixer Tools -->
<svg fill="#000000" height="800px" width="800px" version="1.1" xmlns="http://www.w3.org/2000/svg" viewBox="0 0 297 297" xmlns:xlink="http://www.w3.org/1999/xlink" enable-background="new 0 0 297 297">
  <path d="m281.228,176.63l-15.242-76.246c-0.58-2.9-2.403-5.398-4.987-6.835-2.586-1.438-5.672-1.667-8.438-0.627l-17.126,6.425v-89.267c0-5.566-4.514-10.08-10.08-10.08h-153.729c-5.566,0-10.08,4.514-10.08,10.08v68.318c-2.486-1.533-5.537-1.925-8.357-1.026-3.216,1.025-5.703,3.592-6.63,6.836l-30.744,107.664c-1.069,3.741 0.111,7.764 3.031,10.334 1.875,1.651 4.254,2.515 6.663,2.515 1.341,0 2.692-0.268 3.971-0.815l16.691-7.157v90.172c0,5.566 4.514,10.08 10.08,10.08h184.478c5.567,0 10.081-4.514 10.081-10.08v-101.93l18.476,4.108c0.727,0.161 1.459,0.24 2.188,0.24 0.033,0 0.066,0 0.099,0 5.532-0.044 10.001-4.54 10.001-10.081 5.68434e-14-0.908-0.121-1.789-0.346-2.628zm-146.284-39.582l-1.994-1.597v-23.012h31.082v13.695l-29.088,10.914zm29.088-70.749v25.98h-31.082v-25.98h31.082zm-31.082-20.161v-25.977h31.082v25.977h-31.082zm82.323,46.141h-31.08v-25.98h31.08v25.98zm-102.485,0h-31.082v-25.98h31.082v25.98zm-0,20.16v6.876l-8.59-6.876h8.59zm71.405,0h16.343l-16.343,6.133v-6.133zm31.08-66.301h-31.08v-25.977h31.08v25.977zm-102.485-25.977v25.977h-31.082v-25.977h31.082zm-51.003,84.154l51.907,41.545-72.669,31.16 20.762-72.705zm168.864,172.524h-164.317v-88.736l67.77-29.059 96.546,21.465v96.33zm-62.227-130.818l80.119-30.06 10.015,50.098-90.134-20.038z"/>
</svg>