<?xml version="1.0" encoding="utf-8"?>
<svg viewBox="0 0 64 64" width="64px" height="64px" xmlns="http://www.w3.org/2000/svg">
  <title>26-Piece of pie</title>
  <g id="_26-Piece_of_pie" data-name="26-Piece of pie">
    <path d="M40,46H1a1,1,0,0,1-1-1V24.014a1,1,0,0,1,.534-.9l28.485-15,.931,1.77L5.045,23h34.42l3.123-4.685A2.954,2.954,0,0,1,48,19.954V38A8.009,8.009,0,0,1,40,46ZM2,44H40a6.006,6.006,0,0,0,6-6V19.954a.954.954,0,0,0-1.748-.529l-3.42,5.13A1,1,0,0,1,40,25H2Z"/>
    <path d="M39.032,24.25c-.025-.1-2.587-9.681-10.141-14.4a1,1,0,0,1-.409-1.194l2.107-5.716A2.973,2.973,0,0,1,33.368,1a2.915,2.915,0,0,1,1.735.556c4.648,3.4,11.717,11.3,12.883,18.232l-1.972.332C44.941,13.743,38.3,6.37,33.923,3.17a1.014,1.014,0,0,0-1.457.459L30.635,8.6c7.708,5.262,10.227,14.739,10.334,15.151Z"/>
    <path d="M35.834,10.344l-1.852-.755,1.107-2.716a2.96,2.96,0,0,1,2.766-1.907,2.912,2.912,0,0,1,1.735.556L38.41,7.136a1.014,1.014,0,0,0-1.457.46Z"/>
    <path d="M39.477,14.617l-1.852-.754,1.1-2.716A2.961,2.961,0,0,1,41.5,9.24a2.915,2.915,0,0,1,1.735.556L42.051,11.41a1.016,1.016,0,0,0-1.456.46Z"/>
    <rect x="23.646" y="14.5" width="6.708" height="2" transform="translate(-4.081 13.711) rotate(-26.565)"/>
    <rect x="24.969" y="18.5" width="8.062" height="2" transform="translate(-2.195 3.748) rotate(-7.125)"/>
    <rect x="13.877" y="19" width="8.246" height="2" transform="translate(-4.308 4.955) rotate(-14.016)"/>
    <path d="M43,33H41a4,4,0,0,0-4-4H1V27H37A6.006,6.006,0,0,1,43,33Z"/>
    <path d="M37,42H1V40H37a4,4,0,0,0,4-4h2A6.006,6.006,0,0,1,37,42Z"/>
    <path d="M14,39H4a1,1,0,0,1-.99-1.142C3.056,37.538,4.188,30,9,30s5.944,7.538,5.99,7.858A1,1,0,0,1,14,39ZM5.231,37h7.538C12.323,35.223,11.21,32,9,32S5.677,35.223,5.231,37Z"/>
    <path d="M38,39H28a1,1,0,0,1-.99-1.142C27.056,37.538,28.188,30,33,30s5.944,7.538,5.99,7.858A1,1,0,0,1,38,39Zm-8.769-2h7.538c-.446-1.777-1.559-5-3.769-5S29.677,35.223,29.231,37Z"/>
    <path d="M21,39c-4.812,0-5.944-7.538-5.99-7.858A1,1,0,0,1,16,30H26a1,1,0,0,1,.99,1.142C26.944,31.462,25.812,39,21,39Zm-3.769-7c.446,1.777,1.559,5,3.769,5s3.323-3.223,3.769-5Z"/>
    <rect x="8" y="35" width="2" height="3"/>
    <rect x="20" y="31" width="2" height="3"/>
    <rect x="32" y="35" width="2" height="3"/>
  </g>
</svg>