<?xml version="1.0" encoding="utf-8"?>
<svg fill="#000000" height="800px" width="800px" version="1.1" id="Layer_1" viewBox="0 0 800 800" xmlns="http://www.w3.org/2000/svg">
  <g transform="matrix(1.5625, 0, 0, 1.869237, 0, -36.515816)">
    <g>
      <path d="M508.391,243.452L398.598,104.193c-4.537-5.754-12.277-7.907-19.137-5.316l-6.756,2.552 c-8.055-20.829-23.075-42.025-47.685-56.708c-6.157-3.669-13.698-3.555-19.653-0.023c-6.08,3.605-9.684,10.232-9.406,17.286 c0.168,4.355-7.565,14.989-13.212,22.753c-10.834,14.896-24.316,33.436-24.316,55.365c0,1.493,0.073,2.968,0.179,4.434 c-2.336,0.883-247.035,93.326-247.993,93.708C4.17,240.804,0,246.991,0,253.904V418.98c0,28.128,22.884,51.011,51.012,51.011 h409.977c28.128,0,51.011-22.883,51.011-51.011c0-8.394,0-156.843,0-165.124C512,250.236,510.797,246.503,508.391,243.452z M309.933,104.505c4.586-6.304,9.242-12.707,12.868-19.346c13.518,13.333,21.755,31.657,23.549,48.932 c2.277,21.872-12.571,33.332-26.985,33.332c-14.985,0-27.321-12.203-27.321-27.321 C292.044,129.101,301.138,116.598,309.933,104.505z M270.205,176.086c11.271,15.353,29.426,24.948,49.16,24.948 c33.299,0,62.972-27.311,60.788-65.949l80.392,101.968H108.837L270.205,176.086z M33.611,336.435 c4.672,1.304,9.547,1.993,14.53,1.993c14.349,0,27.841-5.588,37.986-15.734c3.799-3.798,8.849-5.89,14.221-5.89 c5.372,0,10.422,2.092,14.22,5.891c10.147,10.146,23.637,15.734,37.987,15.734s27.84-5.588,37.986-15.734 c3.799-3.798,8.849-5.89,14.221-5.89c5.372,0,10.422,2.092,14.22,5.891c10.147,10.146,23.637,15.734,37.987,15.734 c14.349,0,27.84-5.588,37.986-15.734c3.799-3.798,8.849-5.89,14.221-5.89c5.371,0,10.422,2.092,14.22,5.891 c10.147,10.146,23.637,15.734,37.987,15.734c14.349,0,27.84-5.588,37.986-15.734c3.799-3.798,8.849-5.89,14.221-5.89 c5.371,0,10.422,2.092,14.219,5.891c10.147,10.146,23.637,15.734,37.987,15.734c4.298,0,8.516-0.512,12.593-1.487v33.613H33.611 V336.435z M478.389,418.981c0,9.595-7.807,17.4-17.4,17.4H51.012c-9.595,0-17.401-7.806-17.401-17.4v-14.814h444.779V418.981z M478.389,300.389c-3.559,2.87-7.957,4.429-12.593,4.429c-5.372,0-10.423-2.092-14.221-5.89 c-10.147-10.147-23.637-15.734-37.986-15.734c-14.351,0-27.841,5.587-37.987,15.734c-3.799,3.799-8.849,5.891-14.219,5.891 c-5.372,0-10.423-2.092-14.221-5.89c-10.147-10.147-23.637-15.734-37.986-15.734c-14.351,0-27.841,5.587-37.987,15.734 c-3.799,3.799-8.849,5.891-14.22,5.891c-5.372,0-10.423-2.092-14.22-5.89c-10.147-10.147-23.637-15.735-37.987-15.735 c-14.349,0-27.841,5.587-37.987,15.734c-3.799,3.799-8.849,5.891-14.22,5.891c-5.372,0-10.423-2.092-14.22-5.89 c-10.147-10.147-23.637-15.735-37.987-15.735s-27.841,5.587-37.987,15.734c-3.799,3.798-8.847,5.89-14.22,5.89 c-5.372,0-10.423-2.092-14.22-5.889l-0.308-0.309v-27.958h444.771V300.389z"/>
    </g>
  </g>
</svg>