<?xml version="1.0" encoding="utf-8"?>
<svg id="svg12" version="1.1" height="14px" width="14px" viewBox="0 0 14 14" xmlns="http://www.w3.org/2000/svg">
  <path style="opacity: 1; stroke-linejoin: round; fill-opacity: 1; stroke: none; stroke-miterlimit: 4; stroke-dasharray: none; stroke-width: 2.82843; fill: currentcolor; stroke-opacity: 0;" d="M 7 1 C 5.409 1 3.883 1.633 2.757 2.76 C 1.632 3.886 1 5.414 1 7.008 C 1 10.094 3.336 12.679 6.403 12.985 C 6.395 12.794 6.383 12.589 6.363 12.445 C 6.122 10.675 5.779 8.904 5.202 7.214 C 4.449 5.009 2.853 2.814 2.853 2.814 C 2.853 2.814 3.639 3.156 3.991 3.442 C 4.52 3.873 4.996 4.544 5.36 5.136 C 6.351 6.747 7.054 10.231 7.054 10.231 C 7.054 10.231 7.832 8.115 8.325 7.104 C 8.763 6.205 9.385 5.324 9.876 4.522 C 9.582 4.485 9.328 4.727 9.084 4.931 C 8.75 5.211 8.223 6.134 8.223 6.134 C 8.223 6.134 8.294 5.063 8.415 4.714 C 8.592 4.201 8.956 3.76 9.374 3.542 C 9.674 3.385 11.041 3.148 11.52 3.068 C 10.383 1.757 8.734 1.003 7 1 C 7 1 7 1 7 1 M 12.1 3.85 C 12.021 4.455 11.87 5.272 11.6 5.679 C 11.418 5.953 10.926 6.185 10.63 6.327 C 10.153 6.557 9.415 6.589 9.415 6.589 C 9.415 6.589 8.686 7.915 8.436 8.626 C 7.946 10.018 7.611 11.549 7.434 12.939 C 7.432 12.959 7.429 12.98 7.427 13 C 10.567 12.776 13 10.16 13 7.008 C 12.999 5.892 12.687 4.799 12.1 3.85 C 12.1 3.85 12.1 3.85 12.1 3.85" id="path3729"/>
</svg>